<svg xmlns="http://www.w3.org/2000/svg" width="495" height="247" viewBox="0 0 495 247" role="img" aria-label="GitHub activity for the last year">
<rect x="0.5" y="0.5" width="494" height="246" rx="12" fill="#0d0f13" stroke="#262b33"/>
<g font-family="ui-monospace,SFMono-Regular,'JetBrains Mono',Consolas,'Liberation Mono',monospace" font-size="12.5">
<circle cx="24" cy="24" r="4.5" fill="#3a3f47"/>
<circle cx="40" cy="24" r="4.5" fill="#3a3f47"/>
<circle cx="56" cy="24" r="4.5" fill="#3a3f47"/>
<text x="248" y="28" fill="#5b6169" font-size="11.5" text-anchor="middle">github activity · last 12 months</text>
<text x="24" y="66" fill="#8a919c">contributions</text>
<text x="174" y="66" fill="#eef0f2">529</text>
<text x="24" y="87" fill="#8a919c">active days</text>
<text x="174" y="87" fill="#eef0f2">97</text>
<text x="24" y="108" fill="#8a919c">longest streak</text>
<text x="174" y="108" fill="#eef0f2">9 days</text>
<text x="24" y="129" fill="#8a919c">current streak</text>
<text x="174" y="129" fill="#eef0f2">1 day</text>
<text x="24" y="150" fill="#8a919c">busiest weekday</text>
<text x="174" y="150" fill="#eef0f2">Wednesday</text>
<rect x="24.0" y="208" width="6.6" height="3" rx="1.5" fill="#c9a227" opacity="1"/>
<rect x="32.6" y="208" width="6.6" height="3" rx="1.5" fill="#c9a227" opacity="1"/>
<rect x="41.2" y="208" width="6.6" height="3" rx="1.5" fill="#c9a227" opacity="1"/>
<rect x="49.8" y="209" width="6.6" height="2" rx="1.5" fill="#c9a227" opacity="0.25"/>
<rect x="58.4" y="209" width="6.6" height="2" rx="1.5" fill="#c9a227" opacity="0.25"/>
<rect x="67.0" y="209" width="6.6" height="2" rx="1.5" fill="#c9a227" opacity="0.25"/>
<rect x="75.6" y="205" width="6.6" height="6" rx="1.5" fill="#c9a227" opacity="1"/>
<rect x="84.2" y="202" width="6.6" height="9" rx="1.5" fill="#c9a227" opacity="1"/>
<rect x="92.8" y="204" width="6.6" height="7" rx="1.5" fill="#c9a227" opacity="1"/>
<rect x="101.4" y="199" width="6.6" height="12" rx="1.5" fill="#c9a227" opacity="1"/>
<rect x="110.0" y="209" width="6.6" height="2" rx="1.5" fill="#c9a227" opacity="1"/>
<rect x="118.6" y="208" width="6.6" height="3" rx="1.5" fill="#c9a227" opacity="1"/>
<rect x="127.2" y="209" width="6.6" height="2" rx="1.5" fill="#c9a227" opacity="0.25"/>
<rect x="135.8" y="208" width="6.6" height="3" rx="1.5" fill="#c9a227" opacity="1"/>
<rect x="144.3" y="209" width="6.6" height="2" rx="1.5" fill="#c9a227" opacity="0.25"/>
<rect x="152.9" y="209" width="6.6" height="2" rx="1.5" fill="#c9a227" opacity="0.25"/>
<rect x="161.5" y="209" width="6.6" height="2" rx="1.5" fill="#c9a227" opacity="0.25"/>
<rect x="170.1" y="209" width="6.6" height="2" rx="1.5" fill="#c9a227" opacity="0.25"/>
<rect x="178.7" y="209" width="6.6" height="2" rx="1.5" fill="#c9a227" opacity="0.25"/>
<rect x="187.3" y="207" width="6.6" height="4" rx="1.5" fill="#c9a227" opacity="1"/>
<rect x="195.9" y="205" width="6.6" height="6" rx="1.5" fill="#c9a227" opacity="1"/>
<rect x="204.5" y="208" width="6.6" height="3" rx="1.5" fill="#c9a227" opacity="1"/>
<rect x="213.1" y="207" width="6.6" height="4" rx="1.5" fill="#c9a227" opacity="1"/>
<rect x="221.7" y="209" width="6.6" height="2" rx="1.5" fill="#c9a227" opacity="0.25"/>
<rect x="230.3" y="209" width="6.6" height="2" rx="1.5" fill="#c9a227" opacity="0.25"/>
<rect x="238.9" y="209" width="6.6" height="2" rx="1.5" fill="#c9a227" opacity="0.25"/>
<rect x="247.5" y="209" width="6.6" height="2" rx="1.5" fill="#c9a227" opacity="0.25"/>
<rect x="256.1" y="209" width="6.6" height="2" rx="1.5" fill="#c9a227" opacity="0.25"/>
<rect x="264.7" y="204" width="6.6" height="7" rx="1.5" fill="#c9a227" opacity="1"/>
<rect x="273.3" y="208" width="6.6" height="3" rx="1.5" fill="#c9a227" opacity="1"/>
<rect x="281.9" y="208" width="6.6" height="3" rx="1.5" fill="#c9a227" opacity="1"/>
<rect x="290.5" y="207" width="6.6" height="4" rx="1.5" fill="#c9a227" opacity="1"/>
<rect x="299.1" y="209" width="6.6" height="2" rx="1.5" fill="#c9a227" opacity="0.25"/>
<rect x="307.7" y="209" width="6.6" height="2" rx="1.5" fill="#c9a227" opacity="0.25"/>
<rect x="316.3" y="209" width="6.6" height="2" rx="1.5" fill="#c9a227" opacity="1"/>
<rect x="324.9" y="209" width="6.6" height="2" rx="1.5" fill="#c9a227" opacity="1"/>
<rect x="333.5" y="207" width="6.6" height="4" rx="1.5" fill="#c9a227" opacity="1"/>
<rect x="342.1" y="208" width="6.6" height="3" rx="1.5" fill="#c9a227" opacity="1"/>
<rect x="350.7" y="209" width="6.6" height="2" rx="1.5" fill="#c9a227" opacity="0.25"/>
<rect x="359.2" y="209" width="6.6" height="2" rx="1.5" fill="#c9a227" opacity="0.25"/>
<rect x="367.8" y="202" width="6.6" height="9" rx="1.5" fill="#c9a227" opacity="1"/>
<rect x="376.4" y="196" width="6.6" height="15" rx="1.5" fill="#c9a227" opacity="1"/>
<rect x="385.0" y="189" width="6.6" height="22" rx="1.5" fill="#c9a227" opacity="1"/>
<rect x="393.6" y="181" width="6.6" height="30" rx="1.5" fill="#c9a227" opacity="1"/>
<rect x="402.2" y="199" width="6.6" height="12" rx="1.5" fill="#c9a227" opacity="1"/>
<rect x="410.8" y="183" width="6.6" height="28" rx="1.5" fill="#c9a227" opacity="1"/>
<rect x="419.4" y="177" width="6.6" height="34" rx="1.5" fill="#c9a227" opacity="1"/>
<rect x="428.0" y="190" width="6.6" height="21" rx="1.5" fill="#c9a227" opacity="1"/>
<rect x="436.6" y="187" width="6.6" height="24" rx="1.5" fill="#c9a227" opacity="1"/>
<rect x="445.2" y="181" width="6.6" height="30" rx="1.5" fill="#c9a227" opacity="1"/>
<rect x="453.8" y="206" width="6.6" height="5" rx="1.5" fill="#c9a227" opacity="1"/>
<rect x="462.4" y="202" width="6.6" height="9" rx="1.5" fill="#c9a227" opacity="1"/>
<text x="24" y="233" fill="#5b6169" font-size="10.5">contributions per week</text><text x="471" y="233" fill="#5b6169" font-size="10.5" text-anchor="end">updated 2026-09-26</text>
</g></svg>